{
  "accessors": [
    {
      "bufferView": 2,
      "componentType": 5126,
      "count": 19998,
      "max": [
        3.575214385986328,
        -2.3440184593200684,
        -0.28516674041748047
      ],
      "min": [
        3.3147172927856445,
        -3.946049451828003,
        -0.47417163848876953
      ],
      "type": "VEC3"
    },
    {
      "bufferView": 2,
      "byteOffset": 239976,
      "componentType": 5126,
      "count": 19998,
      "max": [
        1.0,
        0.9999839663505554,
        1.0
      ],
      "min": [
        -1.0,
        -0.9999840259552002,
        -1.0
      ],
      "type": "VEC3"
    },
    {
      "bufferView": 1,
      "componentType": 5126,
      "count": 19998,
      "max": [
        0.9999995827674866,
        1.0
      ],
      "min": [
        0.0,
        0.0
      ],
      "type": "VEC2"
    },
    {
      "bufferView": 0,
      "componentType": 5125,
      "count": 105600,
      "type": "SCALAR"
    },
    {
      "bufferView": 2,
      "byteOffset": 479952,
      "componentType": 5126,
      "count": 10569,
      "max": [
        4.9544782638549805,
        4.920367240905762,
        -0.22031593322753906
      ],
      "min": [
        1.9287981986999512,
        -4.946585178375244,
        -0.5398473739624023
      ],
      "type": "VEC3"
    },
    {
      "bufferView": 2,
      "byteOffset": 606780,
      "componentType": 5126,
      "count": 10569,
      "max": [
        1.0,
        1.0,
        1.0
      ],
      "min": [
        -1.0,
        -1.0,
        -1.0
      ],
      "type": "VEC3"
    },
    {
      "bufferView": 1,
      "byteOffset": 159984,
      "componentType": 5126,
      "count": 10569,
      "max": [
        1.0,
        1.0
      ],
      "min": [
        0.0,
        -7.450580596923828e-08
      ],
      "type": "VEC2"
    },
    {
      "bufferView": 0,
      "byteOffset": 422400,
      "componentType": 5125,
      "count": 57642,
      "type": "SCALAR"
    },
    {
      "bufferView": 2,
      "byteOffset": 733608,
      "componentType": 5126,
      "count": 484,
      "max": [
        4.152873516082764,
        -0.9392855167388916,
        -0.2878246307373047
      ],
      "min": [
        2.730402708053589,
        -2.358949661254883,
        -0.46982765197753906
      ],
      "type": "VEC3"
    },
    {
      "bufferView": 2,
      "byteOffset": 739416,
      "componentType": 5126,
      "count": 484,
      "max": [
        0.15790955722332,
        0.15821769833564758,
        -0.9874034523963928
      ],
      "min": [
        -0.15791065990924835,
        -0.1582198590040207,
        -0.9918838143348694
      ],
      "type": "VEC3"
    },
    {
      "bufferView": 1,
      "byteOffset": 244536,
      "componentType": 5126,
      "count": 484,
      "max": [
        1.0,
        1.0
      ],
      "min": [
        0.0,
        0.0
      ],
      "type": "VEC2"
    },
    {
      "bufferView": 0,
      "byteOffset": 652968,
      "componentType": 5125,
      "count": 726,
      "type": "SCALAR"
    },
    {
      "bufferView": 2,
      "byteOffset": 745224,
      "componentType": 5126,
      "count": 16,
      "max": [
        4.031120300292969,
        -1.4940320253372192,
        -0.29140567779541016
      ],
      "min": [
        2.89935302734375,
        -1.7367761135101318,
        -0.4662466049194336
      ],
      "type": "VEC3"
    },
    {
      "bufferView": 2,
      "byteOffset": 745416,
      "componentType": 5126,
      "count": 16,
      "max": [
        0.0,
        0.0,
        1.0
      ],
      "min": [
        0.0,
        0.0,
        -1.0
      ],
      "type": "VEC3"
    },
    {
      "bufferView": 1,
      "byteOffset": 248408,
      "componentType": 5126,
      "count": 16,
      "max": [
        1.0,
        1.0
      ],
      "min": [
        0.0,
        0.0
      ],
      "type": "VEC2"
    },
    {
      "bufferView": 0,
      "byteOffset": 655872,
      "componentType": 5125,
      "count": 24,
      "type": "SCALAR"
    },
    {
      "bufferView": 2,
      "byteOffset": 745608,
      "componentType": 5126,
      "count": 32,
      "max": [
        4.779314041137695,
        -1.4665268659591675,
        -0.29140567779541016
      ],
      "min": [
        2.103963613510132,
        -1.7474250793457031,
        -0.4662466049194336
      ],
      "type": "VEC3"
    },
    {
      "bufferView": 2,
      "byteOffset": 745992,
      "componentType": 5126,
      "count": 32,
      "max": [
        0.0,
        0.0,
        1.0
      ],
      "min": [
        0.0,
        0.0,
        -1.0
      ],
      "type": "VEC3"
    },
    {
      "bufferView": 1,
      "byteOffset": 248536,
      "componentType": 5126,
      "count": 32,
      "max": [
        1.0,
        1.0
      ],
      "min": [
        0.0,
        0.0
      ],
      "type": "VEC2"
    },
    {
      "bufferView": 0,
      "byteOffset": 655968,
      "componentType": 5125,
      "count": 48,
      "type": "SCALAR"
    },
    {
      "bufferView": 2,
      "byteOffset": 746376,
      "componentType": 5126,
      "count": 24,
      "max": [
        3.7935121059417725,
        4.920367240905762,
        -0.3489809036254883
      ],
      "min": [
        3.108433723449707,
        -1.0342355966567993,
        -0.39153385162353516
      ],
      "type": "VEC3"
    },
    {
      "bufferView": 2,
      "byteOffset": 746664,
      "componentType": 5126,
      "count": 24,
      "max": [
        0.0,
        0.0,
        1.0
      ],
      "min": [
        0.0,
        -0.03495616093277931,
        -0.999441921710968
      ],
      "type": "VEC3"
    },
    {
      "bufferView": 1,
      "byteOffset": 248792,
      "componentType": 5126,
      "count": 24,
      "max": [
        1.0,
        1.0
      ],
      "min": [
        0.0,
        0.0
      ],
      "type": "VEC2"
    },
    {
      "bufferView": 0,
      "byteOffset": 656160,
      "componentType": 5125,
      "count": 36,
      "type": "SCALAR"
    }
  ],
  "asset": {
    "extras": {
      "author": "henriquevale111 (https://sketchfab.com/henriquevale111)",
      "license": "CC-BY-4.0 (http://creativecommons.org/licenses/by/4.0/)",
      "source": "https://sketchfab.com/3d-models/demon-blood-sword-a15df568e6234a749538b919eae0e956",
      "title": "Demon Blood Sword"
    },
    "generator": "Sketchfab-15.34.0",
    "version": "2.0"
  },
  "bufferViews": [
    {
      "buffer": 0,
      "byteLength": 656304,
      "name": "floatBufferViews",
      "target": 34963
    },
    {
      "buffer": 0,
      "byteLength": 248984,
      "byteOffset": 656304,
      "byteStride": 8,
      "name": "floatBufferViews",
      "target": 34962
    },
    {
      "buffer": 0,
      "byteLength": 746952,
      "byteOffset": 905288,
      "byteStride": 12,
      "name": "floatBufferViews",
      "target": 34962
    }
  ],
  "buffers": [
    {
      "byteLength": 1652240,
      "uri": "scene.bin"
    }
  ],
  "materials": [
    {
      "doubleSided": true,
      "name": "lambert5",
      "pbrMetallicRoughness": {
        "baseColorFactor": [
          0.187,
          0.0575399,
          0.0,
          1.0
        ],
        "metallicFactor": 0.0,
        "roughnessFactor": 0.6
      }
    },
    {
      "doubleSided": true,
      "name": "DemonsBlade",
      "pbrMetallicRoughness": {
        "baseColorFactor": [
          0.552,
          0.0,
          0.0,
          1.0
        ],
        "metallicFactor": 0.0,
        "roughnessFactor": 0.9207483816249483
      }
    },
    {
      "doubleSided": true,
      "name": "surfaceShader5",
      "pbrMetallicRoughness": {
        "baseColorFactor": [
          0.0,
          0.0,
          0.0,
          1.0
        ],
        "metallicFactor": 0.0,
        "roughnessFactor": 0.6
      }
    },
    {
      "doubleSided": true,
      "name": "surfaceShader3",
      "pbrMetallicRoughness": {
        "baseColorFactor": [
          0.0,
          0.0,
          0.0,
          1.0
        ],
        "metallicFactor": 0.0,
        "roughnessFactor": 0.6
      }
    },
    {
      "doubleSided": true,
      "name": "surfaceShader4",
      "pbrMetallicRoughness": {
        "baseColorFactor": [
          0.0,
          0.0,
          0.0,
          1.0
        ],
        "metallicFactor": 0.0,
        "roughnessFactor": 0.6
      }
    },
    {
      "doubleSided": true,
      "name": "surfaceShader2",
      "pbrMetallicRoughness": {
        "baseColorFactor": [
          0.0,
          0.0,
          0.0,
          1.0
        ],
        "metallicFactor": 0.0,
        "roughnessFactor": 0.6
      }
    }
  ],
  "meshes": [
    {
      "name": "polySurface23_lambert5_0",
      "primitives": [
        {
          "attributes": {
            "NORMAL": 1,
            "POSITION": 0,
            "TEXCOORD_0": 2
          },
          "indices": 3,
          "material": 0,
          "mode": 4
        }
      ]
    },
    {
      "name": "polySurface23_DemonsBlade_0",
      "primitives": [
        {
          "attributes": {
            "NORMAL": 5,
            "POSITION": 4,
            "TEXCOORD_0": 6
          },
          "indices": 7,
          "material": 1,
          "mode": 4
        }
      ]
    },
    {
      "name": "polySurface23_surfaceShader5_0",
      "primitives": [
        {
          "attributes": {
            "NORMAL": 9,
            "POSITION": 8,
            "TEXCOORD_0": 10
          },
          "indices": 11,
          "material": 2,
          "mode": 4
        }
      ]
    },
    {
      "name": "polySurface23_surfaceShader3_0",
      "primitives": [
        {
          "attributes": {
            "NORMAL": 13,
            "POSITION": 12,
            "TEXCOORD_0": 14
          },
          "indices": 15,
          "material": 3,
          "mode": 4
        }
      ]
    },
    {
      "name": "polySurface23_surfaceShader4_0",
      "primitives": [
        {
          "attributes": {
            "NORMAL": 17,
            "POSITION": 16,
            "TEXCOORD_0": 18
          },
          "indices": 19,
          "material": 4,
          "mode": 4
        }
      ]
    },
    {
      "name": "polySurface23_surfaceShader2_0",
      "primitives": [
        {
          "attributes": {
            "NORMAL": 21,
            "POSITION": 20,
            "TEXCOORD_0": 22
          },
          "indices": 23,
          "material": 5,
          "mode": 4
        }
      ]
    }
  ],
  "nodes": [
    {
      "children": [
        1
      ],
      "matrix": [
        1.0,
        0.0,
        0.0,
        0.0,
        0.0,
        2.220446049250313e-16,
        -1.0,
        0.0,
        0.0,
        1.0,
        2.220446049250313e-16,
        0.0,
        0.0,
        0.0,
        0.0,
        1.0
      ],
      "name": "Sketchfab_model"
    },
    {
      "children": [
        2
      ],
      "matrix": [
        0.009999999776482582,
        0.0,
        0.0,
        0.0,
        0.0,
        0.0,
        0.009999999776482582,
        0.0,
        0.0,
        -0.009999999776482582,
        0.0,
        0.0,
        0.0,
        0.0,
        0.0,
        1.0
      ],
      "name": "593b92518c604677a500be960bfe4dcd.fbx"
    },
    {
      "children": [
        3
      ],
      "name": "RootNode"
    },
    {
      "children": [
        4,
        5,
        6,
        7,
        8,
        9
      ],
      "name": "polySurface23"
    },
    {
      "mesh": 0,
      "name": "polySurface23_lambert5_0"
    },
    {
      "mesh": 1,
      "name": "polySurface23_DemonsBlade_0"
    },
    {
      "mesh": 2,
      "name": "polySurface23_surfaceShader5_0"
    },
    {
      "mesh": 3,
      "name": "polySurface23_surfaceShader3_0"
    },
    {
      "mesh": 4,
      "name": "polySurface23_surfaceShader4_0"
    },
    {
      "mesh": 5,
      "name": "polySurface23_surfaceShader2_0"
    }
  ],
  "scene": 0,
  "scenes": [
    {
      "name": "Sketchfab_Scene",
      "nodes": [
        0
      ]
    }
  ]
}
